<?xml version="1.0" encoding="UTF-8" standalone="no"?>
<!-- Created with Inkscape (http://www.inkscape.org/) -->

<svg
   width="132.03654mm"
   height="26.315983mm"
   viewBox="0 0 132.03654 26.315983"
   version="1.1"
   id="svg943"
   inkscape:version="1.1.2 (0a00cf5339, 2022-02-04)"
   sodipodi:docname="FoundTech Logo svg.svg"
   xmlns:inkscape="http://www.inkscape.org/namespaces/inkscape"
   xmlns:sodipodi="http://sodipodi.sourceforge.net/DTD/sodipodi-0.dtd"
   xmlns="http://www.w3.org/2000/svg"
   xmlns:svg="http://www.w3.org/2000/svg">
  <style
     id="style2672">
.measure-arrow
{
}
.measure-label
{

}
.measure-line
{
}</style>
  <sodipodi:namedview
     id="namedview945"
     pagecolor="#505050"
     bordercolor="#eeeeee"
     borderopacity="1"
     inkscape:pageshadow="0"
     inkscape:pageopacity="0"
     inkscape:pagecheckerboard="0"
     inkscape:document-units="mm"
     showgrid="false"
     inkscape:snap-bbox="false"
     inkscape:snap-bbox-midpoints="false"
     inkscape:snap-object-midpoints="true"
     inkscape:zoom="1.3665685"
     inkscape:cx="275.14171"
     inkscape:cy="70.980708"
     inkscape:window-width="1920"
     inkscape:window-height="939"
     inkscape:window-x="0"
     inkscape:window-y="32"
     inkscape:window-maximized="1"
     inkscape:current-layer="layer6"
     inkscape:bbox-paths="false"
     inkscape:snap-intersection-paths="true"
     inkscape:snap-nodes="true"
     inkscape:snap-global="true"
     inkscape:object-nodes="true"
     inkscape:snap-others="false"
     width="26.316mm"
     fit-margin-top="0"
     fit-margin-left="0"
     fit-margin-right="0"
     fit-margin-bottom="0" />
  <defs
     id="defs940" />
  <g
     inkscape:label="Layer 1"
     inkscape:groupmode="layer"
     id="layer1"
     style="display:none" />
  <g
     inkscape:groupmode="layer"
     id="layer2"
     inkscape:label="construction"
     style="display:none">
    <path
       sodipodi:type="star"
       style="vector-effect:non-scaling-stroke;fill:#ffffff;stroke:#000000;stroke-width:0.0316661;stroke-linejoin:round;stroke-miterlimit:4;stroke-dasharray:none;-inkscape-stroke:hairline"
       id="path1026"
       inkscape:flatsided="false"
       sodipodi:sides="3"
       sodipodi:cx="66.721954"
       sodipodi:cy="63.433319"
       sodipodi:r1="130.58867"
       sodipodi:r2="65.294334"
       sodipodi:arg1="-2.6179939"
       sodipodi:arg2="-1.5707963"
       inkscape:rounded="0"
       inkscape:randomized="0"
       d="m -46.371152,-1.8610128 113.093108,-2.5e-6 113.093104,-2.5e-6 L 123.26851,96.080488 66.721957,194.02199 10.175401,96.080485 Z"
       transform="matrix(0.2210568,0,0,0.2210568,10.250659,0.41139065)"
       inkscape:transform-center-y="7.2168781" />
    <path
       sodipodi:type="star"
       style="vector-effect:non-scaling-stroke;fill:#ffffff;stroke:#000000;stroke-width:0.0575747;stroke-linejoin:round;stroke-miterlimit:4;stroke-dasharray:none;-inkscape-stroke:hairline"
       id="path1026-1"
       inkscape:flatsided="false"
       sodipodi:sides="3"
       sodipodi:cx="66.721954"
       sodipodi:cy="63.433319"
       sodipodi:r1="130.58867"
       sodipodi:r2="65.294334"
       sodipodi:arg1="-2.6179939"
       sodipodi:arg2="-1.5707963"
       inkscape:rounded="0"
       inkscape:randomized="0"
       transform="matrix(0.12158124,0,0,0.12158124,16.887863,6.7214556)"
       inkscape:transform-center-y="3.9692829"
       d="m -46.371152,-1.8610128 113.093108,-2.5e-6 113.093104,-2.5e-6 L 123.26851,96.080488 66.721957,194.02199 10.175401,96.080485 Z"
       inkscape:transform-center-x="3.6298838e-06" />
    <path
       sodipodi:type="star"
       style="vector-effect:non-scaling-stroke;fill:none;stroke:#000000;stroke-width:0.0211107;stroke-linejoin:round;stroke-miterlimit:4;stroke-dasharray:none;-inkscape-stroke:hairline"
       id="path1026-6"
       inkscape:flatsided="false"
       sodipodi:sides="3"
       sodipodi:cx="66.721954"
       sodipodi:cy="63.433319"
       sodipodi:r1="130.58867"
       sodipodi:r2="65.294334"
       sodipodi:arg1="-2.6179939"
       sodipodi:arg2="-1.5707963"
       inkscape:rounded="0"
       inkscape:randomized="0"
       transform="matrix(0.3315852,0,0,0.3315852,2.8759881,-6.5997926)"
       inkscape:transform-center-y="10.825317"
       d="m -46.371152,-1.8610128 113.093108,-2.5e-6 113.093104,-2.5e-6 L 123.26851,96.080488 66.721957,194.02199 10.175401,96.080485 Z" />
    <path
       style="vector-effect:non-scaling-stroke;fill:none;stroke:#000000;stroke-width:0.00070115;stroke-linecap:butt;stroke-linejoin:miter;stroke-miterlimit:4;stroke-dasharray:none;stroke-opacity:1;-inkscape-stroke:hairline"
       d="m -19.060199,6.4951913 87.373732,-7e-7"
       id="path1445" />
    <path
       style="display:inline;vector-effect:non-scaling-stroke;fill:none;stroke:#000000;stroke-width:0.00070115;stroke-linecap:butt;stroke-linejoin:miter;stroke-miterlimit:4;stroke-dasharray:none;stroke-opacity:1;-inkscape-stroke:hairline"
       d="M -19.060199,12.990191 H 68.313533"
       id="path1445-5" />
    <path
       style="display:inline;vector-effect:non-scaling-stroke;fill:none;stroke:#000000;stroke-width:0.00070115;stroke-linecap:butt;stroke-linejoin:miter;stroke-miterlimit:4;stroke-dasharray:none;stroke-opacity:1;-inkscape-stroke:hairline"
       d="M -19.060199,19.485191 H 68.313533"
       id="path1445-5-9" />
    <path
       style="vector-effect:non-scaling-stroke;fill:none;stroke:#000000;stroke-width:0.00070004;stroke-linecap:butt;stroke-linejoin:miter;stroke-miterlimit:4;stroke-dasharray:none;stroke-opacity:1;-inkscape-stroke:hairline"
       d="M 18.189682,48.601902 52.368955,-10.598336"
       id="path1694" />
    <path
       style="vector-effect:non-scaling-stroke;fill:none;stroke:#000000;stroke-width:0.00070004;stroke-linecap:butt;stroke-linejoin:miter;stroke-miterlimit:4;stroke-dasharray:none;stroke-opacity:1;-inkscape-stroke:hairline"
       d="M 11.250001,6.4951912 35.135982,47.866923 v 0"
       id="path1911" />
    <path
       style="vector-effect:non-scaling-stroke;fill:none;stroke:#000000;stroke-width:0.00070004;stroke-linecap:butt;stroke-linejoin:miter;stroke-miterlimit:4;stroke-dasharray:none;stroke-opacity:1;-inkscape-stroke:hairline"
       d="M 20.065502,38.857686 43.873919,-2.3797013"
       id="path2317" />
  </g>
  <g
     inkscape:groupmode="layer"
     id="layer8"
     inkscape:label="Background (white)"
     style="display:none">
    <rect
       style="fill:#ffffff;fill-opacity:1;stroke:none;stroke-width:0.7;stroke-linejoin:round;stroke-miterlimit:4;stroke-dasharray:none;stroke-opacity:1"
       id="rect99484"
       width="160.62534"
       height="57.431812"
       x="-8.783123"
       y="-7.6020508" />
  </g>
  <g
     inkscape:groupmode="layer"
     id="layer7"
     inkscape:label="Background (black)"
     style="display:none">
    <rect
       style="fill:#000000;fill-opacity:1;stroke:none;stroke-width:0.7;stroke-linejoin:round;stroke-miterlimit:4;stroke-dasharray:none;stroke-opacity:1"
       id="rect99484-1"
       width="160.62534"
       height="57.431812"
       x="-8.783123"
       y="-7.6020508" />
  </g>
  <g
     inkscape:groupmode="layer"
     id="layer6"
     inkscape:label="Technologies"
     style="display:inline">
    <path
       id="path862"
       style="font-style:italic;font-size:10.5833px;line-height:1.25;-inkscape-font-specification:'sans-serif, Italic';fill:#468a00;stroke-width:0.999999"
       d="M 175.08594 60.751953 L 169.16797 91.142578 L 172.76172 91.142578 L 175.125 79.013672 C 175.54167 76.852221 176.45313 75.120439 177.85938 73.818359 C 179.27864 72.516282 180.95183 71.865234 182.87891 71.865234 C 184.11588 71.865234 185.07943 72.171227 185.76953 72.783203 C 186.45963 73.395182 186.80469 74.248052 186.80469 75.341797 C 186.80469 75.615236 186.77214 75.986331 186.70703 76.455078 C 186.64192 76.923828 186.55078 77.464196 186.43359 78.076172 L 183.875 91.142578 L 187.48828 91.142578 L 190.04688 77.939453 C 190.16407 77.314455 190.2487 76.735025 190.30078 76.201172 C 190.36589 75.667319 190.39844 75.166013 190.39844 74.697266 C 190.39844 72.809251 189.86458 71.344397 188.79688 70.302734 C 187.74219 69.261071 186.25129 68.740234 184.32422 68.740234 C 182.76172 68.740234 181.27083 69.098311 179.85156 69.814453 C 178.4323 70.517576 177.26692 71.481123 176.35547 72.705078 L 178.67969 60.751953 L 175.08594 60.751953 z M 250.26172 60.751953 L 244.34375 91.142578 L 247.9375 91.142578 L 253.85547 60.751953 L 250.26172 60.751953 z M 311.23828 60.751953 L 310.35938 65.302734 L 313.95312 65.302734 L 314.83203 60.751953 L 311.23828 60.751953 z M 104.03125 61.982422 L 103.38672 65.302734 L 113.69922 65.302734 L 108.69922 91.142578 L 112.66406 91.142578 L 117.66406 65.302734 L 128.07422 65.302734 L 128.69922 61.982422 L 104.03125 61.982422 z M 135.88672 68.740234 C 134.3112 68.740234 132.82031 69.000653 131.41406 69.521484 C 130.02084 70.042316 128.8164 70.784509 127.80078 71.748047 C 126.22527 73.2845 125.02734 75.035813 124.20703 77.001953 C 123.39974 78.955072 122.99609 81.070973 122.99609 83.349609 C 122.99609 86.018873 123.8099 88.082687 125.4375 89.541016 C 127.07812 90.986325 129.41537 91.708984 132.44922 91.708984 C 133.86849 91.708984 135.26172 91.578776 136.62891 91.318359 C 138.00911 91.057945 139.34375 90.667318 140.63281 90.146484 L 141.31641 86.591797 C 140.11849 87.268879 138.82291 87.783204 137.42969 88.134766 C 136.03646 88.486327 134.55859 88.662109 132.99609 88.662109 C 130.96485 88.662109 129.38932 88.167315 128.26953 87.177734 C 127.16276 86.188156 126.60938 84.788408 126.60938 82.978516 C 126.60937 82.770183 126.62241 82.522784 126.64844 82.236328 C 126.67447 81.94987 126.72655 81.559244 126.80469 81.064453 L 143.52344 81.064453 C 143.67968 80.283205 143.79686 79.554033 143.875 78.876953 C 143.95314 78.186852 143.99219 77.542316 143.99219 76.943359 C 143.99219 74.443366 143.25651 72.451166 141.78516 70.966797 C 140.32683 69.482428 138.36067 68.740234 135.88672 68.740234 z M 161.12109 68.740234 C 159.37631 68.740234 157.76822 69.007165 156.29688 69.541016 C 154.82553 70.074869 153.54297 70.862634 152.44922 71.904297 C 150.84766 73.427729 149.63672 75.146488 148.81641 77.060547 C 148.00912 78.961581 147.60547 81.044929 147.60547 83.310547 C 147.60547 86.005851 148.38672 88.082687 149.94922 89.541016 C 151.51171 90.986325 153.7448 91.708984 156.64844 91.708984 C 157.80729 91.708984 158.9336 91.598307 160.02734 91.376953 C 161.13411 91.168621 162.20834 90.849609 163.25 90.419922 L 163.93359 86.865234 C 162.72266 87.464191 161.55729 87.913413 160.4375 88.212891 C 159.33073 88.51237 158.28255 88.662109 157.29297 88.662109 C 155.28777 88.662109 153.79036 88.180337 152.80078 87.216797 C 151.82422 86.253259 151.33594 84.788406 151.33594 82.822266 C 151.33594 81.194668 151.64193 79.619135 152.25391 78.095703 C 152.86588 76.572269 153.73177 75.244136 154.85156 74.111328 C 155.55469 73.369142 156.42057 72.796222 157.44922 72.392578 C 158.49088 71.988932 159.58464 71.787109 160.73047 71.787109 C 161.77213 71.787109 162.77474 71.94336 163.73828 72.255859 C 164.71484 72.568358 165.63281 73.037112 166.49219 73.662109 L 167.21484 70.107422 C 166.17318 69.651697 165.15104 69.313151 164.14844 69.091797 C 163.14583 68.857416 162.13672 68.740234 161.12109 68.740234 z M 209.67578 68.740234 C 208.12631 68.740234 206.64843 69.085289 205.24219 69.775391 C 203.83594 70.465492 202.63151 71.442061 201.62891 72.705078 L 202.35156 69.267578 L 198.75781 69.267578 L 194.51953 91.142578 L 198.11328 91.142578 L 200.51562 79.013672 C 200.94531 76.813158 201.85678 75.074865 203.25 73.798828 C 204.64322 72.50977 206.30339 71.865234 208.23047 71.865234 C 209.46745 71.865234 210.43099 72.171227 211.12109 72.783203 C 211.8112 73.395182 212.15625 74.248052 212.15625 75.341797 C 212.15625 75.615236 212.1237 75.986331 212.05859 76.455078 C 211.99349 76.923828 211.90235 77.464196 211.78516 78.076172 L 209.22656 91.142578 L 212.83984 91.142578 L 215.39844 77.939453 C 215.51563 77.314455 215.60026 76.735025 215.65234 76.201172 C 215.71745 75.667319 215.75 75.166013 215.75 74.697266 C 215.75 72.809251 215.21614 71.344397 214.14844 70.302734 C 213.09375 69.261071 211.60286 68.740234 209.67578 68.740234 z M 232.78125 68.740234 C 230.77605 68.740234 228.97916 69.156904 227.39062 69.990234 C 225.80209 70.823565 224.36328 72.112636 223.07422 73.857422 C 222.25391 74.97721 221.58333 76.363939 221.0625 78.017578 C 220.55469 79.658198 220.30078 81.27279 220.30078 82.861328 C 220.30078 85.595693 221.04297 87.757165 222.52734 89.345703 C 224.02473 90.921219 226.056 91.708984 228.62109 91.708984 C 230.65234 91.708984 232.46224 91.292317 234.05078 90.458984 C 235.63932 89.625654 237.07162 88.336583 238.34766 86.591797 C 239.16797 85.458989 239.83203 84.033198 240.33984 82.314453 C 240.84766 80.595708 241.10156 78.870436 241.10156 77.138672 C 241.10156 74.638681 240.33333 72.613928 238.79688 71.064453 C 237.27344 69.51498 235.26822 68.740234 232.78125 68.740234 z M 268.36719 68.740234 C 266.36198 68.740234 264.5651 69.156904 262.97656 69.990234 C 261.38802 70.823565 259.94921 72.112636 258.66016 73.857422 C 257.83985 74.97721 257.16927 76.363939 256.64844 78.017578 C 256.14063 79.658198 255.88672 81.27279 255.88672 82.861328 C 255.88672 85.595693 256.62891 87.757165 258.11328 89.345703 C 259.61067 90.921219 261.64194 91.708984 264.20703 91.708984 C 266.23828 91.708984 268.04818 91.292317 269.63672 90.458984 C 271.22526 89.625654 272.65756 88.336583 273.93359 86.591797 C 274.7539 85.458989 275.41797 84.033198 275.92578 82.314453 C 276.43359 80.595708 276.6875 78.870436 276.6875 77.138672 C 276.6875 74.638681 275.91927 72.613928 274.38281 71.064453 C 272.85938 69.51498 270.85416 68.740234 268.36719 68.740234 z M 291.84375 68.740234 C 290.50261 68.740234 289.21354 69.007165 287.97656 69.541016 C 286.75261 70.074869 285.67838 70.836591 284.75391 71.826172 C 283.36068 73.323563 282.27995 75.042325 281.51172 76.982422 C 280.74349 78.9095 280.35938 80.882168 280.35938 82.900391 C 280.35938 85.465485 280.99089 87.483728 282.25391 88.955078 C 283.52995 90.413406 285.27475 91.142578 287.48828 91.142578 C 289.02473 91.142578 290.45704 90.843095 291.78516 90.244141 C 293.11328 89.645184 294.27865 88.772782 295.28125 87.626953 L 294.96875 89.267578 C 294.5 91.598299 293.52994 93.382164 292.05859 94.619141 C 290.60027 95.869136 288.73176 96.494141 286.45312 96.494141 C 285.33334 96.494141 284.27864 96.357421 283.28906 96.083984 C 282.29948 95.810548 281.36198 95.387369 280.47656 94.814453 L 279.8125 98.310547 C 280.75 98.701164 281.75912 98.987623 282.83984 99.169922 C 283.92057 99.365223 285.09245 99.462891 286.35547 99.462891 C 289.77994 99.462891 292.50131 98.551425 294.51953 96.728516 C 296.55078 94.905604 297.92448 92.138661 298.64062 88.427734 L 302.37109 69.267578 L 298.75781 69.267578 L 298.13281 72.666016 C 297.59896 71.416018 296.78515 70.45247 295.69141 69.775391 C 294.59766 69.085289 293.3151 68.740234 291.84375 68.740234 z M 329.75391 68.740234 C 328.17839 68.740234 326.68749 69.000653 325.28125 69.521484 C 323.88803 70.042316 322.68359 70.784509 321.66797 71.748047 C 320.09245 73.2845 318.89453 75.035813 318.07422 77.001953 C 317.26693 78.955072 316.86328 81.070973 316.86328 83.349609 C 316.86328 86.018873 317.67709 88.082687 319.30469 89.541016 C 320.94531 90.986325 323.28256 91.708984 326.31641 91.708984 C 327.73567 91.708984 329.12891 91.578776 330.49609 91.318359 C 331.8763 91.057945 333.21094 90.667318 334.5 90.146484 L 335.18359 86.591797 C 333.98568 87.268879 332.6901 87.783204 331.29688 88.134766 C 329.90365 88.486327 328.42578 88.662109 326.86328 88.662109 C 324.83204 88.662109 323.25651 88.167315 322.13672 87.177734 C 321.02995 86.188156 320.47656 84.788408 320.47656 82.978516 C 320.47656 82.770183 320.48957 82.522784 320.51562 82.236328 C 320.54165 81.94987 320.59374 81.559244 320.67188 81.064453 L 337.39062 81.064453 C 337.54687 80.283205 337.66405 79.554033 337.74219 78.876953 C 337.8203 78.186852 337.85938 77.542316 337.85938 76.943359 C 337.85938 74.443366 337.12369 72.451166 335.65234 70.966797 C 334.19402 69.482428 332.22786 68.740234 329.75391 68.740234 z M 352.83984 68.740234 C 349.83204 68.740234 347.44921 69.423835 345.69141 70.791016 C 343.94662 72.158199 343.07422 74.007169 343.07422 76.337891 C 343.07422 77.561845 343.4974 78.570967 344.34375 79.365234 C 345.1901 80.146483 346.52474 80.777997 348.34766 81.259766 L 349.57812 81.572266 L 349.94922 81.669922 C 352.83983 82.438149 354.28516 83.447268 354.28516 84.697266 C 354.28516 85.856114 353.73177 86.813152 352.625 87.568359 C 351.53125 88.323564 350.10546 88.701172 348.34766 88.701172 C 347.17578 88.701172 345.95182 88.52539 344.67578 88.173828 C 343.39974 87.822267 342.10416 87.307939 340.78906 86.630859 L 340.08594 90.341797 C 341.62239 90.810544 343.02865 91.155599 344.30469 91.376953 C 345.58072 91.598307 346.79818 91.708984 347.95703 91.708984 C 350.93879 91.708984 353.34766 90.979815 355.18359 89.521484 C 357.03255 88.063156 357.95703 86.175121 357.95703 83.857422 C 357.95703 82.594405 357.55338 81.598305 356.74609 80.869141 C 355.95183 80.139977 354.35676 79.443357 351.96094 78.779297 L 350.80859 78.427734 C 350.71744 78.401681 350.57421 78.362629 350.37891 78.310547 C 347.85287 77.620443 346.58984 76.630855 346.58984 75.341797 C 346.58984 74.23503 347.13021 73.362629 348.21094 72.724609 C 349.30468 72.073571 350.79558 71.748047 352.68359 71.748047 C 353.80338 71.748047 354.89063 71.878255 355.94531 72.138672 C 357 72.399086 358.00261 72.789715 358.95312 73.310547 L 359.63672 69.912109 C 358.54297 69.521475 357.42968 69.228504 356.29688 69.033203 C 355.17709 68.837902 354.02474 68.740234 352.83984 68.740234 z M 309.59766 69.267578 L 305.32031 91.142578 L 308.91406 91.142578 L 313.19141 69.267578 L 309.59766 69.267578 z M 292.15625 71.748047 C 293.6927 71.748047 294.87761 72.229822 295.71094 73.193359 C 296.54427 74.1569 296.96094 75.524095 296.96094 77.294922 C 296.96094 80.39387 296.19921 82.978521 294.67578 85.048828 C 293.15235 87.106113 291.2513 88.134766 288.97266 88.134766 C 287.39714 88.134766 286.1862 87.652991 285.33984 86.689453 C 284.50651 85.725913 284.08984 84.345696 284.08984 82.548828 C 284.08984 80.934249 284.36328 79.371741 284.91016 77.861328 C 285.47005 76.337896 286.2448 75.016273 287.23438 73.896484 C 287.84635 73.219402 288.58203 72.692056 289.44141 72.314453 C 290.30078 71.936851 291.20573 71.748047 292.15625 71.748047 z M 135.32031 71.787109 C 136.92187 71.787109 138.1849 72.249351 139.10938 73.173828 C 140.04687 74.098303 140.51562 75.354821 140.51562 76.943359 C 140.51562 77.164711 140.50259 77.386068 140.47656 77.607422 C 140.46354 77.828781 140.43749 78.043626 140.39844 78.251953 L 127.48828 78.271484 C 128.1914 76.20118 129.22657 74.606116 130.59375 73.486328 C 131.96093 72.353518 133.53646 71.787109 135.32031 71.787109 z M 232.39062 71.787109 C 234.03124 71.787109 235.27474 72.268882 236.12109 73.232422 C 236.96745 74.19596 237.39063 75.621751 237.39062 77.509766 C 237.39062 80.738921 236.59635 83.408209 235.00781 85.517578 C 233.4323 87.613926 231.4401 88.662109 229.03125 88.662109 C 227.35157 88.662109 226.09505 88.173825 225.26172 87.197266 C 224.44141 86.207685 224.03125 84.7233 224.03125 82.744141 C 224.03125 81.429041 224.19401 80.152992 224.51953 78.916016 C 224.85807 77.679042 225.33334 76.578775 225.94531 75.615234 C 226.77865 74.326176 227.72266 73.369138 228.77734 72.744141 C 229.83203 72.106121 231.03646 71.787109 232.39062 71.787109 z M 267.97656 71.787109 C 269.61718 71.787109 270.86068 72.268882 271.70703 73.232422 C 272.55338 74.19596 272.97656 75.621751 272.97656 77.509766 C 272.97656 80.738921 272.18229 83.408209 270.59375 85.517578 C 269.01823 87.613926 267.02603 88.662109 264.61719 88.662109 C 262.9375 88.662109 261.68099 88.173825 260.84766 87.197266 C 260.02735 86.207685 259.61719 84.7233 259.61719 82.744141 C 259.61719 81.429041 259.77995 80.152992 260.10547 78.916016 C 260.44401 77.679042 260.91927 76.578775 261.53125 75.615234 C 262.36458 74.326176 263.3086 73.369138 264.36328 72.744141 C 265.41797 72.106121 266.6224 71.787109 267.97656 71.787109 z M 329.1875 71.787109 C 330.78906 71.787109 332.05209 72.249351 332.97656 73.173828 C 333.91406 74.098303 334.38281 75.354821 334.38281 76.943359 C 334.38281 77.164711 334.3698 77.386068 334.34375 77.607422 C 334.33072 77.828781 334.30468 78.043626 334.26562 78.251953 L 321.35547 78.271484 C 322.05859 76.20118 323.09376 74.606116 324.46094 73.486328 C 325.82812 72.353518 327.40365 71.787109 329.1875 71.787109 z "
       transform="scale(0.26458333)" />
  </g>
  <g
     inkscape:groupmode="layer"
     id="layer5"
     inkscape:label="Foundational"
     style="display:inline">
    <path
       id="path887"
       style="font-style:italic;font-weight:bold;font-size:13.4056px;line-height:1.25;-inkscape-font-specification:'sans-serif, Bold Italic';fill:#2c5aa0;stroke-width:0.999999"
       d="M 291.74219 11.900391 L 288.87305 26.744141 C 287.94943 25.127816 286.81836 23.940324 285.48242 23.181641 C 284.16297 22.406465 282.55491 22.019531 280.6582 22.019531 C 278.49761 22.019531 276.46897 22.554901 274.57227 23.626953 C 272.69205 24.699005 271.00283 26.275384 269.50195 28.353516 C 268.31445 30.002827 267.39909 31.833544 266.75586 33.845703 C 266.12912 35.857862 265.81445 37.927075 265.81445 40.054688 C 265.81445 43.46876 266.72287 46.165359 268.53711 48.144531 C 270.35135 50.123706 272.8164 51.113281 275.93359 51.113281 C 277.69836 51.113281 279.32226 50.733294 280.80664 49.974609 C 282.29102 49.199433 283.71007 48.004994 285.0625 46.388672 L 284.24609 50.396484 L 293.17773 50.396484 L 300.67383 11.900391 L 291.74219 11.900391 z M 367.69336 11.900391 L 366.25781 19.125 L 375.18945 19.125 L 376.59961 11.900391 L 367.69336 11.900391 z M 490.12891 11.900391 L 482.6582 50.396484 L 491.53906 50.396484 L 499.03516 11.900391 L 490.12891 11.900391 z M 134.62109 13.458984 L 127.42188 50.396484 L 136.94531 50.396484 L 139.98828 34.736328 L 155.17969 34.736328 L 156.61328 27.537109 L 141.39844 27.537109 L 142.73438 20.658203 L 158.89062 20.658203 L 160.30078 13.458984 L 134.62109 13.458984 z M 343.76953 14.820312 L 342.23633 22.6875 L 337.83203 22.6875 L 336.61914 29.021484 L 340.97461 29.021484 L 338.69727 40.771484 C 338.59832 41.315757 338.5241 41.853079 338.47461 42.380859 C 338.42512 42.908638 338.40039 43.403427 338.40039 43.865234 C 338.40039 45.976352 339.10199 47.591359 340.50391 48.712891 C 341.90582 49.83442 343.94335 50.396484 346.61523 50.396484 L 354.0625 50.396484 L 355.32422 44.0625 L 350.74609 44.0625 C 349.55859 44.0625 348.70855 43.898221 348.19727 43.568359 C 347.70247 43.238497 347.45508 42.694229 347.45508 41.935547 C 347.45508 41.770608 347.46409 41.597433 347.48047 41.416016 C 347.51345 41.234593 347.56294 41.011939 347.62891 40.748047 L 349.9043 29.021484 L 358.95898 29.021484 L 360.2207 22.6875 L 351.16602 22.6875 L 352.67578 14.820312 L 343.76953 14.820312 z M 176.75195 22.019531 C 173.98111 22.019531 171.44879 22.51432 169.15625 23.503906 C 166.8802 24.493493 164.91884 25.944221 163.26953 27.857422 C 161.85112 29.506733 160.76259 31.330506 160.00391 33.326172 C 159.24522 35.305345 158.86523 37.333978 158.86523 39.412109 C 158.86523 43.024101 160.03688 45.876076 162.37891 47.970703 C 164.73742 50.065327 167.95354 51.113281 172.02734 51.113281 C 174.84767 51.113281 177.40277 50.618492 179.69531 49.628906 C 181.98785 48.639318 183.97591 47.170794 185.6582 45.224609 C 187.07661 43.59179 188.15625 41.794712 188.89844 39.832031 C 189.64063 37.852859 190.01172 35.815328 190.01172 33.720703 C 190.01172 30.108712 188.83313 27.256734 186.47461 25.162109 C 184.1161 23.067484 180.87523 22.019531 176.75195 22.019531 z M 253.04883 22.019531 C 251.25108 22.019531 249.52822 22.406465 247.87891 23.181641 C 246.2296 23.956817 244.5879 25.144309 242.95508 26.744141 L 243.77148 22.6875 L 234.86523 22.6875 L 229.47266 50.396484 L 238.35352 50.396484 L 241.02539 36.763672 C 241.53668 34.240226 242.44509 32.26997 243.74805 30.851562 C 245.0675 29.416662 246.64192 28.699219 248.47266 28.699219 C 249.54471 28.699219 250.37001 28.987194 250.94727 29.564453 C 251.54102 30.141712 251.83789 30.958113 251.83789 32.013672 C 251.83789 32.393013 251.77951 32.912541 251.66406 33.572266 C 251.56511 34.215497 251.41667 35.007159 251.21875 35.947266 L 248.42383 50.396484 L 257.30469 50.396484 L 260.5957 33.523438 C 260.74414 32.764755 260.85005 32.063153 260.91602 31.419922 C 260.99848 30.776691 261.04102 30.191842 261.04102 29.664062 C 261.04102 27.239575 260.34831 25.35938 258.96289 24.023438 C 257.57747 22.687496 255.60526 22.019531 253.04883 22.019531 z M 319.05469 22.019531 C 316.97656 22.019531 314.96377 22.14323 313.01758 22.390625 C 311.08788 22.621529 309.20074 22.96788 307.35352 23.429688 L 306.01758 30.183594 C 307.61741 29.424911 309.27495 28.855904 310.99023 28.476562 C 312.70552 28.097221 314.47786 27.908203 316.30859 27.908203 C 318.33725 27.908203 319.86219 28.187281 320.88477 28.748047 C 321.92383 29.29232 322.44336 30.10872 322.44336 31.197266 C 322.44336 31.279732 322.4363 31.371745 322.41992 31.470703 C 322.41992 31.569661 322.39519 31.73394 322.3457 31.964844 L 322.24609 32.658203 L 317.02539 32.658203 C 311.87954 32.658203 307.93903 33.598301 305.20117 35.478516 C 302.47981 37.342237 301.11914 40.038835 301.11914 43.568359 C 301.11914 45.877396 301.88606 47.715057 303.41992 49.083984 C 304.97027 50.43642 307.05533 51.113281 309.67773 51.113281 C 311.57444 51.113281 313.33094 50.726348 314.94727 49.951172 C 316.56359 49.159502 318.09743 47.938373 319.54883 46.289062 L 318.80664 50.396484 L 327.66406 50.396484 L 330.75586 34.587891 C 330.90429 33.812714 331.01216 33.095271 331.07812 32.435547 C 331.16059 31.759329 331.20117 31.140844 331.20117 30.580078 C 331.20117 27.693784 330.20465 25.548399 328.20898 24.146484 C 326.21332 22.728077 323.16147 22.019531 319.05469 22.019531 z M 395.74805 22.019531 C 392.9772 22.019531 390.44488 22.51432 388.15234 23.503906 C 385.87629 24.493493 383.91298 25.944221 382.26367 27.857422 C 380.84527 29.506733 379.75672 31.330506 378.99805 33.326172 C 378.23936 35.305345 377.86133 37.333978 377.86133 39.412109 C 377.86133 43.024101 379.03101 45.876076 381.37305 47.970703 C 383.73155 50.065327 386.94768 51.113281 391.02148 51.113281 C 393.84182 51.113281 396.39887 50.618492 398.69141 49.628906 C 400.98394 48.639318 402.972 47.170794 404.6543 45.224609 C 406.0727 43.59179 407.15233 41.794712 407.89453 39.832031 C 408.63673 37.852859 409.00781 35.815328 409.00781 33.720703 C 409.00781 30.108712 407.82923 27.256734 405.4707 25.162109 C 403.11218 23.067484 399.87131 22.019531 395.74805 22.019531 z M 435.97461 22.019531 C 434.17686 22.019531 432.45204 22.406465 430.80273 23.181641 C 429.15342 23.956817 427.51369 25.144309 425.88086 26.744141 L 426.69727 22.6875 L 417.79102 22.6875 L 412.39648 50.396484 L 421.2793 50.396484 L 423.95117 36.763672 C 424.46244 34.240226 425.36892 32.26997 426.67188 30.851562 C 427.99133 29.416662 429.56576 28.699219 431.39648 28.699219 C 432.46853 28.699219 433.29383 28.987194 433.87109 29.564453 C 434.46486 30.141712 434.76172 30.958113 434.76172 32.013672 C 434.76172 32.393013 434.70525 32.912541 434.58984 33.572266 C 434.49077 34.215497 434.34233 35.007159 434.14453 35.947266 L 431.34766 50.396484 L 440.23047 50.396484 L 443.51953 33.523438 C 443.66794 32.764755 443.77578 32.063153 443.8418 31.419922 C 443.92419 30.776691 443.96484 30.191842 443.96484 29.664062 C 443.96484 27.239575 443.27214 25.35938 441.88672 24.023438 C 440.5013 22.687496 438.53103 22.019531 435.97461 22.019531 z M 465.71289 22.019531 C 463.63476 22.019531 461.62196 22.14323 459.67578 22.390625 C 457.74608 22.621529 455.85895 22.96788 454.01172 23.429688 L 452.67578 30.183594 C 454.2756 29.424911 455.93316 28.855904 457.64844 28.476562 C 459.36374 28.097221 461.13607 27.908203 462.9668 27.908203 C 464.99545 27.908203 466.5204 28.187281 467.54297 28.748047 C 468.58204 29.29232 469.10156 30.10872 469.10156 31.197266 C 469.10156 31.279732 469.09381 31.371745 469.07617 31.470703 C 469.07617 31.569661 469.05134 31.73394 469.00195 31.964844 L 468.90234 32.658203 L 463.68359 32.658203 C 458.53774 32.658203 454.59526 33.598301 451.85742 35.478516 C 449.13606 37.342237 447.77539 40.038835 447.77539 43.568359 C 447.77539 45.877396 448.54231 47.715057 450.07617 49.083984 C 451.62651 50.43642 453.71352 51.113281 456.33594 51.113281 C 458.23266 51.113281 459.98917 50.726348 461.60547 49.951172 C 463.2218 49.159502 464.75562 47.938373 466.20703 46.289062 L 465.46484 50.396484 L 474.32031 50.396484 L 477.41406 34.587891 C 477.56247 33.812714 477.67031 33.095271 477.73633 32.435547 C 477.81872 31.759329 477.85937 31.140844 477.85938 30.580078 C 477.85938 27.693784 476.86285 25.548399 474.86719 24.146484 C 472.87152 22.728077 469.81967 22.019531 465.71289 22.019531 z M 198.52344 22.6875 L 195.28125 39.609375 C 195.14929 40.302084 195.05034 40.970048 194.98438 41.613281 C 194.91841 42.256511 194.88672 42.8661 194.88672 43.443359 C 194.88672 45.88434 195.57942 47.773433 196.96484 49.109375 C 198.35026 50.445317 200.30468 51.113281 202.82812 51.113281 C 204.67535 51.113281 206.43185 50.717451 208.09766 49.925781 C 209.76346 49.134111 211.35373 47.937722 212.87109 46.337891 L 212.05469 50.396484 L 220.98633 50.396484 L 226.35547 22.6875 L 217.47266 22.6875 L 214.80078 36.318359 C 214.30599 38.841805 213.39953 40.814016 212.08008 42.232422 C 210.76063 43.650831 209.1862 44.359375 207.35547 44.359375 C 206.28342 44.359375 205.45812 44.0714 204.88086 43.494141 C 204.3036 42.916883 204.01562 42.107427 204.01562 41.068359 C 204.01563 40.689018 204.06509 40.16949 204.16406 39.509766 C 204.26302 38.850042 204.41145 38.051435 204.60938 37.111328 L 207.4043 22.6875 L 198.52344 22.6875 z M 365.61523 22.6875 L 360.2207 50.396484 L 369.10352 50.396484 L 374.52148 22.6875 L 365.61523 22.6875 z M 176.03516 28.353516 C 177.56901 28.353516 178.73177 28.805769 179.52344 29.712891 C 180.3316 30.620012 180.73437 31.940098 180.73438 33.671875 C 180.73438 36.904524 179.99219 39.567485 178.50781 41.662109 C 177.02343 43.740242 175.13629 44.779297 172.84375 44.779297 C 171.30989 44.779297 170.13824 44.327044 169.33008 43.419922 C 168.53841 42.496309 168.14258 41.16038 168.14258 39.412109 C 168.14258 36.195954 168.88476 33.548835 170.36914 31.470703 C 171.85352 29.392571 173.74261 28.353516 176.03516 28.353516 z M 395.0293 28.353516 C 396.56316 28.353516 397.72589 28.805769 398.51758 29.712891 C 399.32574 30.620012 399.73047 31.940098 399.73047 33.671875 C 399.73047 36.904524 398.9883 39.567485 397.50391 41.662109 C 396.01953 43.740242 394.13043 44.779297 391.83789 44.779297 C 390.30403 44.779297 389.13434 44.327044 388.32617 43.419922 C 387.53449 42.496309 387.13867 41.16038 387.13867 39.412109 C 387.13867 36.195954 387.88084 33.548835 389.36523 31.470703 C 390.84961 29.392571 392.73676 28.353516 395.0293 28.353516 z M 282.6875 28.451172 C 284.1224 28.451172 285.23567 28.880639 286.02734 29.738281 C 286.83551 30.595923 287.24023 31.792313 287.24023 33.326172 C 287.24023 36.707261 286.52279 39.444438 285.08789 41.539062 C 283.66948 43.633687 281.82097 44.681641 279.54492 44.681641 C 278.06054 44.681641 276.92253 44.243275 276.13086 43.369141 C 275.35568 42.478513 274.96875 41.192064 274.96875 39.509766 C 274.96875 36.277117 275.69509 33.629998 277.14648 31.568359 C 278.59788 29.490227 280.44444 28.451172 282.6875 28.451172 z M 316.92773 37.927734 L 321.18164 37.927734 L 320.98438 38.941406 C 320.57205 40.937072 319.75565 42.486759 318.53516 43.591797 C 317.31466 44.680344 315.79666 45.224609 313.98242 45.224609 C 312.81141 45.224609 311.88911 44.936635 311.21289 44.359375 C 310.55317 43.782115 310.22266 42.990455 310.22266 41.984375 C 310.22266 40.648435 310.78276 39.643015 311.9043 38.966797 C 313.04232 38.274085 314.71766 37.927734 316.92773 37.927734 z M 463.58398 37.927734 L 467.83984 37.927734 L 467.64062 38.941406 C 467.22828 40.937072 466.41189 42.486759 465.19141 43.591797 C 463.97092 44.680344 462.45487 45.224609 460.64062 45.224609 C 459.46963 45.224609 458.54537 44.936635 457.86914 44.359375 C 457.20944 43.782115 456.87891 42.990455 456.87891 41.984375 C 456.87891 40.648435 457.44099 39.643015 458.5625 38.966797 C 459.70054 38.274085 461.37392 37.927734 463.58398 37.927734 z "
       transform="scale(0.26458333)" />
  </g>
  <g
     inkscape:groupmode="layer"
     id="layer4"
     inkscape:label="T"
     style="display:inline">
    <path
       id="path4296"
       style="color:#000000;fill:#468a00;stroke-width:0.7;-inkscape-stroke:none"
       d="m 27.412091,3e-6 c 0.09938,0.205674 0.111353,0.454204 -0.01612,0.674997 l -1.349994,2.337842 c -0.315806,0.546991 -0.900079,0.884597 -1.53169,0.884597 H 22.264189 7.5643106 c -0.248446,0 -0.392733,0.248998 -0.268511,0.464158 l 1.349995,2.337842 c 0.210977,0.365422 0.577876,0.608243 0.989397,0.663215 0.05879,0.0079 0.118625,0.01178 0.178904,0.01178 h 10.1999974 2.250096 c 0.551553,0 0.907366,0.616846 0.631588,1.094506 l -1.349994,2.337842 c -0.315806,0.546991 -0.900079,0.884908 -1.53169,0.884907 h -1.228761 l -3.628927,6.284577 0.614537,1.064122 c 0.315805,0.546991 0.315805,1.222513 0,1.769504 l -1.349996,2.338152 c -0.127406,0.220674 -0.348514,0.334522 -0.576088,0.351297 l 0.800881,1.387511 c 0.124223,0.215161 0.412489,0.215161 0.536711,0 L 24.782484,8.2581 c 0.315805,-0.54699 0.90008,-0.883666 1.53169,-0.883666 h 3.200424 c 0.482233,0 0.927186,-0.257373 1.168302,-0.674998 L 32.031965,4.361594 C 32.156187,4.146434 32.013135,3.897436 31.764694,3.897436 H 28.56427 c -0.551555,0 -0.907368,-0.616847 -0.63159,-1.094506 L 29.282675,0.465088 C 29.406897,0.249928 29.262605,0 29.014164,0 Z" />
  </g>
  <g
     inkscape:groupmode="layer"
     id="layer3"
     inkscape:label="F"
     style="display:inline">
    <path
       id="path4186"
       style="color:#000000;fill:#2c5aa0;stroke-width:0.7;-inkscape-stroke:none"
       d="m 0.81433464,3e-6 c -0.248445,0 -0.392733,0.249928 -0.268511,0.465088 L 4.1459146,6.699439 c 0.275777,0.477659 -0.08004,1.094507 -0.63159,1.094507 H 0.31390064 c -0.248446,0 -0.392734,0.248997 -0.268511,0.464157 l 1.34999496,2.339083 c 0.241116,0.417625 0.686378,0.673757 1.168611,0.673757 h 3.200114 c 0.631611,0 1.215885,0.337916 1.53169,0.884907 l 6.2250464,10.782287 c 0.124223,0.21516 0.412489,0.21516 0.536712,0 l 1.349995,-2.339081 c 0.241116,-0.417627 0.241116,-0.931131 0,-1.348756 l -3.974951,-6.88485 c -0.275777,-0.47766 0.08004,-1.094507 0.631589,-1.094507 h 7.949902 c 0.482233,0 0.927494,-0.256132 1.168611,-0.673757 L 22.5327,8.258103 C 22.656922,8.042943 22.512634,7.793946 22.264189,7.793946 H 9.8140956 c -0.631611,0 -1.215574,-0.337607 -1.53138,-0.884597 L 6.9327206,4.571197 C 6.6569436,4.093537 7.0127606,3.47669 7.5643106,3.47669 H 24.514284 c 0.482232,0 0.927184,-0.256132 1.1683,-0.673757 L 27.03258,0.465091 C 27.156802,0.249931 27.01282,3e-6 26.76438,3e-6 Z" />
  </g>
</svg>
