<?xml version="1.0" encoding="UTF-8" standalone="no"?>
<!-- Created with Inkscape (http://www.inkscape.org/) -->

<svg
   width="132.037mm"
   height="26.316mm"
   viewBox="0 0 132.037 26.316"
   version="1.1"
   id="svg943"
   inkscape:version="1.1.2 (0a00cf5339, 2022-02-04)"
   sodipodi:docname="FoundTech Logo.svg"
   xmlns:inkscape="http://www.inkscape.org/namespaces/inkscape"
   xmlns:sodipodi="http://sodipodi.sourceforge.net/DTD/sodipodi-0.dtd"
   xmlns="http://www.w3.org/2000/svg"
   xmlns:svg="http://www.w3.org/2000/svg">
  <style
     id="style2672">
.measure-arrow
{
}
.measure-label
{

}
.measure-line
{
}</style>
  <sodipodi:namedview
     id="namedview945"
     pagecolor="#505050"
     bordercolor="#eeeeee"
     borderopacity="1"
     inkscape:pageshadow="0"
     inkscape:pageopacity="0"
     inkscape:pagecheckerboard="0"
     inkscape:document-units="mm"
     showgrid="false"
     inkscape:snap-bbox="false"
     inkscape:snap-bbox-midpoints="false"
     inkscape:snap-object-midpoints="true"
     inkscape:zoom="1.3665685"
     inkscape:cx="231.23612"
     inkscape:cy="70.980709"
     inkscape:window-width="1920"
     inkscape:window-height="939"
     inkscape:window-x="0"
     inkscape:window-y="32"
     inkscape:window-maximized="1"
     inkscape:current-layer="layer8"
     inkscape:bbox-paths="false"
     inkscape:snap-intersection-paths="true"
     inkscape:snap-nodes="true"
     inkscape:snap-global="true"
     inkscape:object-nodes="true"
     inkscape:snap-others="false"
     width="26.316mm" />
  <defs
     id="defs940" />
  <g
     inkscape:label="Layer 1"
     inkscape:groupmode="layer"
     id="layer1" />
  <g
     inkscape:groupmode="layer"
     id="layer2"
     inkscape:label="construction"
     style="display:none">
    <path
       sodipodi:type="star"
       style="vector-effect:non-scaling-stroke;fill:#ffffff;stroke:#000000;stroke-width:0.0316661;stroke-linejoin:round;stroke-miterlimit:4;stroke-dasharray:none;-inkscape-stroke:hairline"
       id="path1026"
       inkscape:flatsided="false"
       sodipodi:sides="3"
       sodipodi:cx="66.721954"
       sodipodi:cy="63.433319"
       sodipodi:r1="130.58867"
       sodipodi:r2="65.294334"
       sodipodi:arg1="-2.6179939"
       sodipodi:arg2="-1.5707963"
       inkscape:rounded="0"
       inkscape:randomized="0"
       d="m -46.371152,-1.8610128 113.093108,-2.5e-6 113.093104,-2.5e-6 L 123.26851,96.080488 66.721957,194.02199 10.175401,96.080485 Z"
       transform="matrix(0.2210568,0,0,0.2210568,10.250659,0.41139065)"
       inkscape:transform-center-y="7.2168781" />
    <path
       sodipodi:type="star"
       style="vector-effect:non-scaling-stroke;fill:#ffffff;stroke:#000000;stroke-width:0.0575747;stroke-linejoin:round;stroke-miterlimit:4;stroke-dasharray:none;-inkscape-stroke:hairline"
       id="path1026-1"
       inkscape:flatsided="false"
       sodipodi:sides="3"
       sodipodi:cx="66.721954"
       sodipodi:cy="63.433319"
       sodipodi:r1="130.58867"
       sodipodi:r2="65.294334"
       sodipodi:arg1="-2.6179939"
       sodipodi:arg2="-1.5707963"
       inkscape:rounded="0"
       inkscape:randomized="0"
       transform="matrix(0.12158124,0,0,0.12158124,16.887863,6.7214556)"
       inkscape:transform-center-y="3.9692829"
       d="m -46.371152,-1.8610128 113.093108,-2.5e-6 113.093104,-2.5e-6 L 123.26851,96.080488 66.721957,194.02199 10.175401,96.080485 Z"
       inkscape:transform-center-x="3.6298838e-06" />
    <path
       sodipodi:type="star"
       style="vector-effect:non-scaling-stroke;fill:none;stroke:#000000;stroke-width:0.0211107;stroke-linejoin:round;stroke-miterlimit:4;stroke-dasharray:none;-inkscape-stroke:hairline"
       id="path1026-6"
       inkscape:flatsided="false"
       sodipodi:sides="3"
       sodipodi:cx="66.721954"
       sodipodi:cy="63.433319"
       sodipodi:r1="130.58867"
       sodipodi:r2="65.294334"
       sodipodi:arg1="-2.6179939"
       sodipodi:arg2="-1.5707963"
       inkscape:rounded="0"
       inkscape:randomized="0"
       transform="matrix(0.3315852,0,0,0.3315852,2.8759881,-6.5997926)"
       inkscape:transform-center-y="10.825317"
       d="m -46.371152,-1.8610128 113.093108,-2.5e-6 113.093104,-2.5e-6 L 123.26851,96.080488 66.721957,194.02199 10.175401,96.080485 Z" />
    <path
       style="vector-effect:non-scaling-stroke;fill:none;stroke:#000000;stroke-width:0.00070115;stroke-linecap:butt;stroke-linejoin:miter;stroke-miterlimit:4;stroke-dasharray:none;stroke-opacity:1;-inkscape-stroke:hairline"
       d="m -19.060199,6.4951913 87.373732,-7e-7"
       id="path1445" />
    <path
       style="display:inline;vector-effect:non-scaling-stroke;fill:none;stroke:#000000;stroke-width:0.00070115;stroke-linecap:butt;stroke-linejoin:miter;stroke-miterlimit:4;stroke-dasharray:none;stroke-opacity:1;-inkscape-stroke:hairline"
       d="M -19.060199,12.990191 H 68.313533"
       id="path1445-5" />
    <path
       style="display:inline;vector-effect:non-scaling-stroke;fill:none;stroke:#000000;stroke-width:0.00070115;stroke-linecap:butt;stroke-linejoin:miter;stroke-miterlimit:4;stroke-dasharray:none;stroke-opacity:1;-inkscape-stroke:hairline"
       d="M -19.060199,19.485191 H 68.313533"
       id="path1445-5-9" />
    <path
       style="vector-effect:non-scaling-stroke;fill:none;stroke:#000000;stroke-width:0.00070004;stroke-linecap:butt;stroke-linejoin:miter;stroke-miterlimit:4;stroke-dasharray:none;stroke-opacity:1;-inkscape-stroke:hairline"
       d="M 18.189682,48.601902 52.368955,-10.598336"
       id="path1694" />
    <path
       style="vector-effect:non-scaling-stroke;fill:none;stroke:#000000;stroke-width:0.00070004;stroke-linecap:butt;stroke-linejoin:miter;stroke-miterlimit:4;stroke-dasharray:none;stroke-opacity:1;-inkscape-stroke:hairline"
       d="M 11.250001,6.4951912 35.135982,47.866923 v 0"
       id="path1911" />
    <path
       style="vector-effect:non-scaling-stroke;fill:none;stroke:#000000;stroke-width:0.00070004;stroke-linecap:butt;stroke-linejoin:miter;stroke-miterlimit:4;stroke-dasharray:none;stroke-opacity:1;-inkscape-stroke:hairline"
       d="M 20.065502,38.857686 43.873919,-2.3797013"
       id="path2317" />
  </g>
  <g
     inkscape:groupmode="layer"
     id="layer8"
     inkscape:label="Background (white)"
     style="display:none">
    <rect
       style="fill:#ffffff;fill-opacity:1;stroke:none;stroke-width:0.7;stroke-linejoin:round;stroke-miterlimit:4;stroke-dasharray:none;stroke-opacity:1"
       id="rect99484"
       width="160.62534"
       height="57.431812"
       x="-8.783123"
       y="-7.6020508" />
  </g>
  <g
     inkscape:groupmode="layer"
     id="layer7"
     inkscape:label="Background (black)"
     style="display:none">
    <rect
       style="fill:#000000;fill-opacity:1;stroke:none;stroke-width:0.7;stroke-linejoin:round;stroke-miterlimit:4;stroke-dasharray:none;stroke-opacity:1"
       id="rect99484-1"
       width="160.62534"
       height="57.431812"
       x="-8.783123"
       y="-7.6020508" />
  </g>
  <g
     inkscape:groupmode="layer"
     id="layer6"
     inkscape:label="Technologies">
    <text
       xml:space="preserve"
       style="font-style:italic;font-variant:normal;font-weight:normal;font-stretch:normal;font-size:10.5833px;line-height:1.25;font-family:sans-serif;-inkscape-font-specification:'sans-serif, Italic';font-variant-ligatures:normal;font-variant-caps:normal;font-variant-numeric:normal;font-variant-east-asian:normal;fill:#468a00;fill-opacity:1;stroke:none;stroke-width:0.264583"
       x="26.89979"
       y="24.114574"
       id="text31691"><tspan
         sodipodi:role="line"
         id="tspan31689"
         style="font-style:italic;font-variant:normal;font-weight:normal;font-stretch:normal;font-size:10.5833px;font-family:sans-serif;-inkscape-font-specification:'sans-serif, Italic';font-variant-ligatures:normal;font-variant-caps:normal;font-variant-numeric:normal;font-variant-east-asian:normal;fill:#468a00;fill-opacity:1;stroke-width:0.264583"
         x="26.89979"
         y="24.114574">Technologies</tspan></text>
  </g>
  <g
     inkscape:groupmode="layer"
     id="layer5"
     inkscape:label="Foundational">
    <text
       xml:space="preserve"
       style="font-style:italic;font-variant:normal;font-weight:bold;font-stretch:normal;font-size:13.4056px;line-height:1.25;font-family:sans-serif;-inkscape-font-specification:'sans-serif, Bold Italic';font-variant-ligatures:normal;font-variant-caps:normal;font-variant-numeric:normal;font-variant-east-asian:normal;fill:#2c5aa0;fill-opacity:1;stroke:none;stroke-width:0.264583"
       x="33.432079"
       y="13.333859"
       id="text10867"><tspan
         sodipodi:role="line"
         id="tspan10865"
         style="font-style:italic;font-variant:normal;font-weight:bold;font-stretch:normal;font-size:13.4056px;font-family:sans-serif;-inkscape-font-specification:'sans-serif, Bold Italic';font-variant-ligatures:normal;font-variant-caps:normal;font-variant-numeric:normal;font-variant-east-asian:normal;fill:#2c5aa0;fill-opacity:1;stroke-width:0.264583"
         x="33.432079"
         y="13.333859">Foundational</tspan></text>
  </g>
  <g
     inkscape:groupmode="layer"
     id="layer4"
     inkscape:label="T"
     style="display:inline">
    <path
       id="path4296"
       style="color:#000000;fill:#468a00;stroke-width:0.7;-inkscape-stroke:none"
       d="m 27.412091,3e-6 c 0.09938,0.205674 0.111353,0.454204 -0.01612,0.674997 l -1.349994,2.337842 c -0.315806,0.546991 -0.900079,0.884597 -1.53169,0.884597 H 22.264189 7.5643106 c -0.248446,0 -0.392733,0.248998 -0.268511,0.464158 l 1.349995,2.337842 c 0.210977,0.365422 0.577876,0.608243 0.989397,0.663215 0.05879,0.0079 0.118625,0.01178 0.178904,0.01178 h 10.1999974 2.250096 c 0.551553,0 0.907366,0.616846 0.631588,1.094506 l -1.349994,2.337842 c -0.315806,0.546991 -0.900079,0.884908 -1.53169,0.884907 h -1.228761 l -3.628927,6.284577 0.614537,1.064122 c 0.315805,0.546991 0.315805,1.222513 0,1.769504 l -1.349996,2.338152 c -0.127406,0.220674 -0.348514,0.334522 -0.576088,0.351297 l 0.800881,1.387511 c 0.124223,0.215161 0.412489,0.215161 0.536711,0 L 24.782484,8.2581 c 0.315805,-0.54699 0.90008,-0.883666 1.53169,-0.883666 h 3.200424 c 0.482233,0 0.927186,-0.257373 1.168302,-0.674998 L 32.031965,4.361594 C 32.156187,4.146434 32.013135,3.897436 31.764694,3.897436 H 28.56427 c -0.551555,0 -0.907368,-0.616847 -0.63159,-1.094506 L 29.282675,0.465088 C 29.406897,0.249928 29.262605,0 29.014164,0 Z" />
  </g>
  <g
     inkscape:groupmode="layer"
     id="layer3"
     inkscape:label="F"
     style="display:inline">
    <path
       id="path4186"
       style="color:#000000;fill:#2c5aa0;stroke-width:0.7;-inkscape-stroke:none"
       d="m 0.81433464,3e-6 c -0.248445,0 -0.392733,0.249928 -0.268511,0.465088 L 4.1459146,6.699439 c 0.275777,0.477659 -0.08004,1.094507 -0.63159,1.094507 H 0.31390064 c -0.248446,0 -0.392734,0.248997 -0.268511,0.464157 l 1.34999496,2.339083 c 0.241116,0.417625 0.686378,0.673757 1.168611,0.673757 h 3.200114 c 0.631611,0 1.215885,0.337916 1.53169,0.884907 l 6.2250464,10.782287 c 0.124223,0.21516 0.412489,0.21516 0.536712,0 l 1.349995,-2.339081 c 0.241116,-0.417627 0.241116,-0.931131 0,-1.348756 l -3.974951,-6.88485 c -0.275777,-0.47766 0.08004,-1.094507 0.631589,-1.094507 h 7.949902 c 0.482233,0 0.927494,-0.256132 1.168611,-0.673757 L 22.5327,8.258103 C 22.656922,8.042943 22.512634,7.793946 22.264189,7.793946 H 9.8140956 c -0.631611,0 -1.215574,-0.337607 -1.53138,-0.884597 L 6.9327206,4.571197 C 6.6569436,4.093537 7.0127606,3.47669 7.5643106,3.47669 H 24.514284 c 0.482232,0 0.927184,-0.256132 1.1683,-0.673757 L 27.03258,0.465091 C 27.156802,0.249931 27.01282,3e-6 26.76438,3e-6 Z" />
  </g>
</svg>
