<?xml version="1.0" encoding="UTF-8"?><svg id="Layer_2" xmlns="http://www.w3.org/2000/svg" xmlns:xlink="http://www.w3.org/1999/xlink" viewBox="0 0 530 129.69"><defs><style>.cls-1{fill:url(#linear-gradient);}.cls-2{fill:#363741;}.cls-3{fill:#0d293e;}.cls-4{fill:url(#linear-gradient-3);}.cls-5{fill:url(#linear-gradient-4);}.cls-6{fill:url(#linear-gradient-2);}</style><linearGradient id="linear-gradient" x1="2.34" y1="36.77" x2="119.69" y2="36.77" gradientUnits="userSpaceOnUse"><stop offset="0" stop-color="#002241"/><stop offset=".26" stop-color="#346fa8"/><stop offset="1" stop-color="#436996"/></linearGradient><linearGradient id="linear-gradient-2" x1="14.49" y1="96.63" x2="112.5" y2="60.95" gradientUnits="userSpaceOnUse"><stop offset="0" stop-color="#c9cbd0"/><stop offset=".51" stop-color="#3d75aa"/><stop offset=".54" stop-color="#346fa8"/><stop offset="1" stop-color="#406a99"/></linearGradient><linearGradient id="linear-gradient-3" x1="0" y1="64.85" x2="130.19" y2="64.85" gradientUnits="userSpaceOnUse"><stop offset="0" stop-color="#75a3bf"/><stop offset=".66" stop-color="#346fa8"/><stop offset="1" stop-color="#314c6e"/></linearGradient><linearGradient id="linear-gradient-4" x1="28.43" y1="76.33" x2="92.99" y2="76.33" gradientUnits="userSpaceOnUse"><stop offset="0" stop-color="#75a3bf"/><stop offset=".31" stop-color="#75a3bf"/><stop offset="1" stop-color="#3e6b9c"/></linearGradient></defs><g id="Logo_01:_600_x_600_px"><g><g><path class="cls-3" d="M214.55,48.31h-30.58v12.15h27.26v10.76h-27.26v14.47h-14.99V45.29l-6.14-8.75h51.71v11.76Z"/><path class="cls-3" d="M253.06,36.55h14.99v41.02c0,2.27-.55,4.19-1.66,5.77-1.11,1.57-2.45,2.36-4.05,2.36h-36.23c-1.59,0-2.94-.79-4.05-2.36-1.11-1.57-1.66-3.5-1.66-5.77V36.55h14.99v36.84h17.65V36.55Z"/><path class="cls-3" d="M291.03,73.39h27.7v12.31h-42.69V36.55h14.99v36.84Z"/><path class="cls-3" d="M339.09,73.39h27.7v12.31h-42.69V36.55h14.99v36.84Z"/><path class="cls-3" d="M405.41,36.55h16.73l-19.01,49.15h-18.57l-15.64-40.4-6.14-8.75h19.44l11.08,32.12h1.09l11.02-32.12Z"/><path class="cls-3" d="M459.39,36.55h14.99v41.02c0,2.27-.55,4.19-1.66,5.77-1.11,1.57-2.45,2.36-4.05,2.36h-36.23c-1.59,0-2.94-.79-4.05-2.36-1.11-1.57-1.66-3.5-1.66-5.77V36.55h14.99v36.84h17.65V36.55Z"/><path class="cls-3" d="M530,47.69h-32.64v8.05h30.58v10.76h-30.58v8.05h32.64v11.15h-47.63V36.55h47.63v11.15Z"/></g><g><path class="cls-2" d="M285.54,100.45c0,1.89-1.27,3.34-3.42,3.34-1.4,0-2.65-.7-3.46-1.66l.77-.99c.78,.87,1.68,1.44,2.74,1.44,1.37,0,2.22-.79,2.22-2.06,0-1.11-.57-1.75-2.46-2.54-2.22-.93-2.98-1.77-2.98-3.5,0-1.92,1.3-3.07,3.23-3.07,1.39,0,2.27,.48,3.14,1.29l-.74,1.05c-.75-.72-1.44-1.11-2.48-1.11-1.41,0-2,.82-2,1.77,0,.99,.38,1.56,2.45,2.42,2.28,.96,2.99,1.85,2.99,3.63Z"/><path class="cls-2" d="M295.29,103.91l-2.71-7.73c-.22-.62-.5-1.52-.6-1.99v9.41h-1.11v-12h1.28l2.43,7.18c.25,.72,.62,1.83,.74,2.33,.13-.51,.5-1.63,.74-2.33l2.46-7.18h1.25v12h-1.11v-9.41c-.1,.46-.4,1.35-.62,1.99l-2.76,7.73Z"/><path class="cls-2" d="M313.28,103.6h-1.21l-.88-3.05h-4.26l-.9,3.05h-1.18l3.58-12h1.27l3.58,12Zm-2.45-4.27l-1.13-3.94c-.22-.79-.53-1.87-.63-2.37-.1,.48-.4,1.56-.65,2.4l-1.13,3.91h3.55Z"/><path class="cls-2" d="M324.62,103.6h-6.25v-12h1.15v10.78h5.1v1.22Z"/><path class="cls-2" d="M336.04,103.6h-6.25v-12h1.15v10.78h5.1v1.22Z"/><path class="cls-2" d="M355.05,100.05c0,2.37-1.19,3.55-3.36,3.55h-3.7v-12h3.77c1.64,0,2.8,.94,2.8,3,0,1.32-.62,2.09-1.49,2.45,.94,.29,1.97,1.06,1.97,3Zm-1.64-5.4c0-1.1-.55-1.84-1.69-1.84h-2.58v3.74h2.49c1.28,0,1.78-.86,1.78-1.9Zm.49,5.47c0-1.51-.85-2.37-2.2-2.37h-2.56v4.63h2.62c1.55,0,2.14-.89,2.14-2.26Z"/><path class="cls-2" d="M367.52,98.7c0,3.32-1.22,5.09-3.7,5.09s-3.73-1.73-3.73-5.06v-7.13h1.15v7.1c0,2.59,.85,3.87,2.64,3.87s2.49-1.25,2.49-3.84v-7.13h1.15v7.1Z"/><path class="cls-2" d="M379.44,100.45c0,1.89-1.27,3.34-3.42,3.34-1.4,0-2.65-.7-3.46-1.66l.77-.99c.78,.87,1.68,1.44,2.74,1.44,1.37,0,2.23-.79,2.23-2.06,0-1.11-.58-1.75-2.46-2.54-2.22-.93-2.98-1.77-2.98-3.5,0-1.92,1.3-3.07,3.23-3.07,1.39,0,2.27,.48,3.14,1.29l-.74,1.05c-.75-.72-1.44-1.11-2.48-1.11-1.41,0-2,.82-2,1.77,0,.99,.38,1.56,2.45,2.42,2.29,.96,2.99,1.85,2.99,3.63Z"/><path class="cls-2" d="M386,103.6h-1.15v-12h1.15v12Z"/><path class="cls-2" d="M391.73,103.6v-12h1.12l4.46,8.36c.22,.41,.6,1.2,.74,1.51v-9.87h1.11v12h-1.08l-4.51-8.21c-.22-.41-.6-1.2-.74-1.51v9.72h-1.11Z"/><path class="cls-2" d="M411.27,103.6h-6.45v-12h6.23v1.22h-5.08v3.77h2.95v1.22h-2.95v4.58h5.3v1.22Z"/><path class="cls-2" d="M422.75,100.45c0,1.89-1.27,3.34-3.42,3.34-1.4,0-2.65-.7-3.46-1.66l.77-.99c.78,.87,1.68,1.44,2.74,1.44,1.37,0,2.22-.79,2.22-2.06,0-1.11-.57-1.75-2.46-2.54-2.22-.93-2.98-1.77-2.98-3.5,0-1.92,1.3-3.07,3.23-3.07,1.39,0,2.27,.48,3.14,1.29l-.74,1.05c-.75-.72-1.44-1.11-2.48-1.11-1.41,0-2,.82-2,1.77,0,.99,.38,1.56,2.45,2.42,2.28,.96,2.99,1.85,2.99,3.63Z"/><path class="cls-2" d="M434.42,100.45c0,1.89-1.27,3.34-3.42,3.34-1.4,0-2.65-.7-3.46-1.66l.77-.99c.78,.87,1.68,1.44,2.74,1.44,1.37,0,2.22-.79,2.22-2.06,0-1.11-.57-1.75-2.46-2.54-2.22-.93-2.98-1.77-2.98-3.5,0-1.92,1.3-3.07,3.23-3.07,1.39,0,2.27,.48,3.14,1.29l-.74,1.05c-.75-.72-1.44-1.11-2.48-1.11-1.41,0-2,.82-2,1.77,0,.99,.38,1.56,2.45,2.42,2.28,.96,2.99,1.85,2.99,3.63Z"/><path class="cls-2" d="M453.12,92.82h-3.04v10.78h-1.15v-10.78h-3.04v-1.22h7.22v1.22Z"/><path class="cls-2" d="M466.27,97.58c0,3.62-1.74,6.2-4.3,6.2s-4.26-2.55-4.26-6.17,1.72-6.2,4.29-6.2,4.27,2.55,4.27,6.17Zm-1.15,.03c0-3.02-1.37-4.99-3.17-4.99s-3.09,1.94-3.09,4.95,1.36,4.99,3.15,4.99,3.11-1.94,3.11-4.95Z"/><path class="cls-2" d="M479.6,97.58c0,3.62-1.74,6.2-4.3,6.2s-4.26-2.55-4.26-6.17,1.72-6.2,4.29-6.2,4.27,2.55,4.27,6.17Zm-1.15,.03c0-3.02-1.37-4.99-3.17-4.99s-3.09,1.94-3.09,4.95,1.36,4.99,3.15,4.99,3.11-1.94,3.11-4.95Z"/><path class="cls-2" d="M491.07,103.6h-6.25v-12h1.15v10.78h5.1v1.22Z"/><path class="cls-2" d="M503.3,100.05c0,2.37-1.19,3.55-3.36,3.55h-3.7v-12h3.77c1.64,0,2.8,.94,2.8,3,0,1.32-.62,2.09-1.49,2.45,.94,.29,1.97,1.06,1.97,3Zm-1.64-5.4c0-1.1-.55-1.84-1.69-1.84h-2.58v3.74h2.49c1.28,0,1.78-.86,1.78-1.9Zm.49,5.47c0-1.51-.85-2.37-2.2-2.37h-2.56v4.63h2.62c1.55,0,2.14-.89,2.14-2.26Z"/><path class="cls-2" d="M516.53,97.58c0,3.62-1.74,6.2-4.3,6.2s-4.26-2.55-4.26-6.17,1.72-6.2,4.29-6.2,4.27,2.55,4.27,6.17Zm-1.15,.03c0-3.02-1.37-4.99-3.17-4.99s-3.09,1.94-3.09,4.95,1.36,4.99,3.15,4.99,3.11-1.94,3.11-4.95Z"/><path class="cls-2" d="M528.87,103.6h-1.3l-1.58-3.14c-.38-.77-.69-1.39-.94-1.99-.28,.62-.56,1.23-.94,1.99l-1.61,3.14h-1.27l3.21-6.24-2.95-5.76h1.3l1.33,2.62c.38,.75,.66,1.37,.94,1.99,.25-.6,.56-1.22,.94-1.99l1.33-2.62h1.27l-2.95,5.73,3.21,6.27Z"/></g></g><g><path class="cls-1" d="M59.66,2.73L2.83,59.57c-.65,.65-.66,1.71,0,2.36l9.26,9.37,21.72-21.75,11.71,11.15,34.11,.04-27.97-28.45,9.49-9.78,37.37,39.48h20.68c.66-.65,.65-1.71,0-2.37L62.03,2.73c-.66-.65-1.71-.65-2.37,0Z"/><path class="cls-6" d="M22.65,60.75l36.18,37.87c1.07,1.12,2.86,1.13,3.94,.02l35.74-36.64h20.68s-57.22,57.63-57.22,57.63c-.66,.66-1.73,.66-2.39,0L2.78,61.89c-.55-.61-.43-1.29-.43-1.29l20.29,.15h0Z"/><path class="cls-4" d="M129.7,62.04c.65-.65,.65-1.72,0-2.37l-2.63-2.63h0L73.19,3.16c-.21-.21-.46-.36-.75-.43L62.39,0l59.67,59.67c.65,.65,.65,1.72,0,2.37l-60.02,60.02c-.65,.65-1.72,.65-2.37,0L0,62.39l4.31,11.91c.08,.23,.22,.44,.39,.61l53.86,53.86c1.22,1.22,3.19,1.22,4.41,0l1.71-1.71h0L129.7,62.04Z"/><path class="cls-5" d="M86.93,62c-.6,0-1.18,.23-1.61,.65l-23.31,22.36c-.66,.65-1.72,.65-2.37-.01l-24.02-23.61c-.44-.43-1.04-.67-1.66-.67l-5.53,.07,28.99,28.8,1.68,1.68c.9,.9,2.37,.9,3.27,0l1.76-1.76,28.85-27.51h-6.06Z"/></g></g></svg>